<svg width="365" height="125" viewBox="0 0 365 125" fill="none" xmlns="http://www.w3.org/2000/svg">
<path d="M49.551 52.492C49.551 55.8673 48.7763 58.966 47.227 61.788C45.6777 64.5547 43.2983 66.7957 40.089 68.511C36.8797 70.2263 32.8957 71.084 28.137 71.084H19.339V92H5.146V33.734H28.137C32.785 33.734 36.7137 34.5363 39.923 36.141C43.1323 37.7457 45.5393 39.959 47.144 42.781C48.7487 45.603 49.551 48.84 49.551 52.492ZM27.058 59.796C29.7693 59.796 31.789 59.1597 33.117 57.887C34.445 56.6143 35.109 54.816 35.109 52.492C35.109 50.168 34.445 48.3697 33.117 47.097C31.789 45.8243 29.7693 45.188 27.058 45.188H19.339V59.796H27.058ZM159.077 53.405C160.737 50.8597 162.812 48.8677 165.302 47.429C167.792 45.935 170.559 45.188 173.602 45.188V60.211H169.701C166.16 60.211 163.504 60.9857 161.733 62.535C159.963 64.029 159.077 66.685 159.077 70.503V92H144.884V45.686H159.077V53.405ZM212.168 81.044H230.76V92H197.975V33.734H212.168V81.044ZM244.668 40.872C242.178 40.872 240.13 40.1527 238.526 38.714C236.976 37.22 236.202 35.394 236.202 33.236C236.202 31.0227 236.976 29.1967 238.526 27.758C240.13 26.264 242.178 25.517 244.668 25.517C247.102 25.517 249.094 26.264 250.644 27.758C252.248 29.1967 253.051 31.0227 253.051 33.236C253.051 35.394 252.248 37.22 250.644 38.714C249.094 40.1527 247.102 40.872 244.668 40.872ZM251.723 45.686V92H237.53V45.686H251.723ZM290.228 45.188C295.651 45.188 299.967 46.9587 303.176 50.5C306.441 53.986 308.073 58.8 308.073 64.942V92H293.963V66.851C293.963 63.7523 293.161 61.3453 291.556 59.63C289.952 57.9147 287.794 57.057 285.082 57.057C282.371 57.057 280.213 57.9147 278.608 59.63C277.004 61.3453 276.201 63.7523 276.201 66.851V92H262.008V45.686H276.201V51.828C277.64 49.7807 279.577 48.176 282.011 47.014C284.446 45.7967 287.185 45.188 290.228 45.188ZM346.239 92L332.129 72.578V92H317.936V30.58H332.129V64.527L346.156 45.686H363.669L344.413 68.926L363.835 92H346.239Z" fill="#213053"/>
<path d="M63.1058 79.7977C62.1451 81.0312 60.3477 81.2651 59.2705 80.132C56.8983 77.6367 55.2358 74.5293 54.4868 71.1326C53.5333 66.8092 54.1196 62.2886 56.1444 58.3515C58.1692 54.4143 61.5053 51.3079 65.5766 49.5686C68.7753 48.2021 72.2699 47.7469 75.6795 48.225C77.2278 48.4421 78.083 50.0403 77.6385 51.5392V51.5392C77.1939 53.0381 75.6136 53.86 74.0547 53.7412C71.9309 53.5793 69.7848 53.9275 67.8009 54.775C64.9427 55.996 62.6007 58.1768 61.1793 60.9408C59.7578 63.7047 59.3462 66.8783 60.0156 69.9134C60.4801 72.0202 61.4453 73.9684 62.8123 75.6018C63.8158 76.8007 64.0664 78.5642 63.1058 79.7977V79.7977Z" fill="#FFBC00"/>
<circle cx="90.3456" cy="64.8913" r="4.5" transform="rotate(64.7791 90.3456 64.8913)" fill="#FFBC00"/>
<circle cx="77.8441" cy="82.9388" r="4.5" transform="rotate(64.7791 77.8441 82.9388)" fill="#FFBC00"/>
<path d="M124.378 79.4949C125.085 80.8896 124.531 82.6153 123.046 83.107C119.778 84.1898 116.259 84.3697 112.867 83.6C108.549 82.6203 104.709 80.1636 102.01 76.6542C99.3111 73.1448 97.9223 68.803 98.0837 64.3787C98.2104 60.9027 99.2877 57.5472 101.173 54.6664C102.029 53.3582 103.839 53.2655 105.006 54.3064V54.3064C106.173 55.3472 106.243 57.1271 105.471 58.4867C104.42 60.3391 103.82 62.429 103.742 64.585C103.628 67.691 104.603 70.739 106.498 73.2026C108.393 75.6663 111.088 77.391 114.119 78.0787C116.223 78.5561 118.397 78.5132 120.457 77.9724C121.969 77.5756 123.672 78.1002 124.378 79.4949V79.4949Z" fill="#FFBC00"/>
<circle cx="122.5" cy="48.5" r="4.5" fill="#FFBC00"/>
<circle cx="133.5" cy="67.5" r="4.5" fill="#FFBC00"/>
</svg>
