<svg width="368" height="125" viewBox="0 0 368 125" fill="none" xmlns="http://www.w3.org/2000/svg">
<path d="M47.974 51.994C47.974 55.0927 47.227 57.9977 45.733 60.709C44.2943 63.4203 41.998 65.606 38.844 67.266C35.7453 68.926 31.8167 69.756 27.058 69.756H17.347V92H5.727V34.066H27.058C31.54 34.066 35.358 34.8407 38.512 36.39C41.666 37.9393 44.0177 40.0697 45.567 42.781C47.1717 45.4923 47.974 48.5633 47.974 51.994ZM26.56 60.377C29.7693 60.377 32.1487 59.6577 33.698 58.219C35.2473 56.725 36.022 54.65 36.022 51.994C36.022 46.35 32.868 43.528 26.56 43.528H17.347V60.377H26.56ZM166.731 53.156C168.225 50.7213 170.161 48.8123 172.541 47.429C174.975 46.0457 177.742 45.354 180.841 45.354V57.555H177.77C174.118 57.555 171.351 58.4127 169.47 60.128C167.644 61.8433 166.731 64.8313 166.731 69.092V92H155.111V46.018H166.731V53.156ZM220.065 82.787H239.155V92H208.445V34.066H220.065V82.787ZM252.433 40.54C250.386 40.54 248.671 39.9037 247.287 38.631C245.959 37.303 245.295 35.6707 245.295 33.734C245.295 31.7973 245.959 30.1927 247.287 28.92C248.671 27.592 250.386 26.928 252.433 26.928C254.481 26.928 256.168 27.592 257.496 28.92C258.88 30.1927 259.571 31.7973 259.571 33.734C259.571 35.6707 258.88 37.303 257.496 38.631C256.168 39.9037 254.481 40.54 252.433 40.54ZM258.16 46.018V92H246.54V46.018H258.16ZM295.122 45.354C300.6 45.354 305.027 47.097 308.402 50.583C311.777 54.0137 313.465 58.8277 313.465 65.025V92H301.845V66.602C301.845 62.95 300.932 60.1557 299.106 58.219C297.28 56.227 294.79 55.231 291.636 55.231C288.427 55.231 285.881 56.227 284 58.219C282.174 60.1557 281.261 62.95 281.261 66.602V92H269.641V46.018H281.261V51.745C282.81 49.753 284.775 48.2037 287.154 47.097C289.589 45.935 292.245 45.354 295.122 45.354ZM351.739 92L336.135 72.412V92H324.515V30.58H336.135V65.523L351.573 46.018H366.679L346.427 69.092L366.845 92H351.739Z" fill="#213053"/>
<path d="M63.1057 79.7977C62.1451 81.0312 60.3476 81.2651 59.2704 80.132C56.8982 77.6367 55.2357 74.5293 54.4867 71.1326C53.5333 66.8092 54.1196 62.2886 56.1443 58.3515C58.1691 54.4143 61.5052 51.3079 65.5766 49.5686C68.7752 48.2021 72.2699 47.7469 75.6794 48.225C77.2277 48.4421 78.0829 50.0403 77.6384 51.5392C77.1938 53.0381 75.6136 53.86 74.0547 53.7412C71.9308 53.5793 69.7847 53.9275 67.8008 54.775C64.9426 55.996 62.6006 58.1768 61.1792 60.9408C59.7578 63.7047 59.3462 66.8783 60.0155 69.9134C60.4801 72.0202 61.4452 73.9684 62.8123 75.6018C63.8157 76.8007 64.0663 78.5642 63.1057 79.7977Z" fill="#FFB12B"/>
<circle cx="90.3457" cy="64.8913" r="4.5" transform="rotate(64.7791 90.3457 64.8913)" fill="#FFB12B"/>
<circle cx="77.844" cy="82.9387" r="4.5" transform="rotate(64.7791 77.844 82.9387)" fill="#FFB12B"/>
<path d="M124.378 79.495C125.085 80.8896 124.531 82.6154 123.046 83.1071C119.778 84.1899 116.259 84.3698 112.867 83.6001C108.549 82.6204 104.709 80.1637 102.01 76.6543C99.3111 73.1449 97.9223 68.8031 98.0837 64.3787C98.2104 60.9027 99.2877 57.5472 101.173 54.6664C102.029 53.3583 103.839 53.2656 105.006 54.3064C106.173 55.3473 106.243 57.1271 105.471 58.4868C104.42 60.3392 103.82 62.4291 103.742 64.5851C103.628 67.691 104.603 70.739 106.498 73.2027C108.393 75.6664 111.088 77.391 114.119 78.0788C116.223 78.5562 118.397 78.5132 120.457 77.9725C121.969 77.5756 123.672 78.1003 124.378 79.495Z" fill="#FFB12B"/>
<circle cx="122.5" cy="48.5" r="4.5" fill="#FFB12B"/>
<circle cx="133.5" cy="67.5" r="4.5" fill="#FFB12B"/>
</svg>
